<mxfile host="app.diagrams.net" modified="2020-09-22T02:23:21.038Z" agent="5.0 (Windows NT 10.0; Win64; x64) AppleWebKit/537.36 (KHTML, like Gecko) Chrome/85.0.4183.121 Safari/537.36" etag="II6FdJud8wfiqul1Gm6f" version="13.7.3" type="github">
  <diagram id="iCaVDCvr6lo66QG1Ngsa" name="Page-1">
    <mxGraphModel dx="837" dy="713" grid="1" gridSize="10" guides="1" tooltips="1" connect="1" arrows="1" fold="1" page="1" pageScale="1" pageWidth="827" pageHeight="1169" math="0" shadow="0">
      <root>
        <mxCell id="0" />
        <mxCell id="1" parent="0" />
      </root>
    </mxGraphModel>
  </diagram>
</mxfile>
